<svg width="15" height="15" viewBox="0 0 15 15" fill="none" xmlns="http://www.w3.org/2000/svg">
<path d="M9.40827 14.469V10.5273C9.40827 10.3183 9.32254 10.1178 9.16992 9.96991C9.01731 9.82207 8.81032 9.73902 8.59449 9.73902H6.15314C5.93731 9.73902 5.73032 9.82207 5.57771 9.96991C5.42509 10.1178 5.33936 10.3183 5.33936 10.5273V14.469" stroke="white" stroke-width="0.567592" stroke-linecap="round" stroke-linejoin="round"/>
<path d="M1.67762 6.58565V11.3156C1.67762 12.8024 1.67762 13.545 2.1545 14.0069C2.63138 14.4689 3.39796 14.4689 4.93276 14.4689H9.81546C11.3503 14.4689 12.1168 14.4689 12.5937 14.0069C13.0706 13.545 13.0706 12.8024 13.0706 11.3156V6.58565M1.3692 1.47338C1.51731 0.899483 1.59136 0.613322 1.8119 0.446198C2.03324 0.279074 2.33841 0.279074 2.94875 0.279074H11.7995C12.4098 0.279074 12.715 0.279074 12.9363 0.446198C13.156 0.613322 13.2309 0.899483 13.379 1.47338L14.358 5.26837C14.4369 5.57423 14.4768 5.72638 14.4679 5.85093C14.4567 6.00801 14.3973 6.15827 14.2972 6.28233C14.1971 6.40639 14.061 6.49858 13.9064 6.54702C13.7843 6.58565 13.6183 6.58565 13.2854 6.58565C12.8517 6.58565 12.6344 6.58565 12.4529 6.54466C12.2013 6.48788 11.9673 6.37391 11.7702 6.21215C11.5731 6.0504 11.4185 5.84551 11.3193 5.61444C11.2469 5.44731 11.2119 5.24393 11.1427 4.83952C11.1232 4.726 11.1134 4.66924 11.1021 4.65426C11.0945 4.64417 11.0846 4.63595 11.0731 4.63028C11.0617 4.62461 11.049 4.62166 11.0361 4.62166C11.0233 4.62166 11.0106 4.62461 10.9991 4.63028C10.9877 4.63595 10.9778 4.64417 10.9702 4.65426C10.9588 4.66924 10.9491 4.72521 10.9295 4.83952L10.8636 5.22501C10.8107 5.59616 10.6231 5.93693 10.3344 6.18626C10.0457 6.43559 9.6748 6.57718 9.28813 6.58565H9.12211C8.73544 6.57718 8.36452 6.43559 8.07582 6.18626C7.78712 5.93693 7.59952 5.59616 7.54663 5.22501L7.48071 4.83873C7.46118 4.726 7.45142 4.66924 7.44002 4.65426C7.43248 4.64417 7.42257 4.63595 7.41111 4.63028C7.39966 4.62461 7.38697 4.62166 7.37411 4.62166C7.36124 4.62166 7.34856 4.62461 7.3371 4.63028C7.32564 4.63595 7.31574 4.64417 7.30819 4.65426C7.2968 4.66924 7.28703 4.72521 7.2675 4.83952L7.20159 5.22501C7.1487 5.59616 6.96109 5.93693 6.67239 6.18626C6.3837 6.43559 6.01277 6.57718 5.6261 6.58565H5.46009C5.0878 6.57721 4.72977 6.44535 4.44572 6.21208C4.16167 5.97881 3.96878 5.65823 3.89925 5.30384C3.89337 5.27774 3.88849 5.25145 3.8846 5.22501L3.81869 4.83873C3.79916 4.726 3.78939 4.66924 3.778 4.65426C3.77045 4.64417 3.76054 4.63595 3.74909 4.63028C3.73763 4.62461 3.72495 4.62166 3.71208 4.62166C3.69921 4.62166 3.68653 4.62461 3.67507 4.63028C3.66362 4.63595 3.65371 4.64417 3.64616 4.65426C3.63477 4.66924 3.62501 4.72521 3.60547 4.83952C3.5363 5.24472 3.50131 5.44653 3.42888 5.61444C3.32978 5.84542 3.17536 6.05025 2.97839 6.212C2.78142 6.37375 2.54755 6.48777 2.2961 6.54466C2.11381 6.58565 1.89734 6.58565 1.46278 6.58565C1.12994 6.58565 0.963932 6.58565 0.841865 6.54702C0.687213 6.49858 0.551078 6.40639 0.451 6.28233C0.350922 6.15827 0.291487 6.00801 0.280354 5.85093C0.272216 5.72638 0.311278 5.57423 0.390215 5.26837L1.3692 1.47338Z" stroke="white" stroke-width="0.567592"/>
</svg>
