<svg width="27" height="27" viewBox="0 0 27 27" fill="none" xmlns="http://www.w3.org/2000/svg">
<path d="M21.0162 21.0162C21.7129 21.0162 22.3811 21.293 22.8738 21.7857C23.3665 22.2783 23.6432 22.9465 23.6432 23.6432C23.6432 24.34 23.3665 25.0082 22.8738 25.5008C22.3811 25.9935 21.7129 26.2703 21.0162 26.2703C20.3195 26.2703 19.6513 25.9935 19.1586 25.5008C18.666 25.0082 18.3892 24.34 18.3892 23.6432C18.3892 22.1852 19.5582 21.0162 21.0162 21.0162ZM0 0H4.29519L5.52989 2.62703H24.9568C25.3051 2.62703 25.6392 2.76541 25.8856 3.01175C26.1319 3.25808 26.2703 3.59218 26.2703 3.94054C26.2703 4.16384 26.2046 4.38714 26.1126 4.5973L21.4103 13.0957C20.9637 13.897 20.0968 14.4486 19.1116 14.4486H9.32595L8.14378 16.5897L8.10438 16.7473C8.10438 16.8344 8.13898 16.9179 8.20056 16.9795C8.26214 17.0411 8.34567 17.0757 8.43276 17.0757H23.6432V19.7027H7.88108C7.18435 19.7027 6.51616 19.4259 6.02349 18.9333C5.53083 18.4406 5.25405 17.7724 5.25405 17.0757C5.25405 16.6159 5.37227 16.1825 5.5693 15.8147L7.35568 12.5966L2.62703 2.62703H0V0ZM7.88108 21.0162C8.57781 21.0162 9.24601 21.293 9.73867 21.7857C10.2313 22.2783 10.5081 22.9465 10.5081 23.6432C10.5081 24.34 10.2313 25.0082 9.73867 25.5008C9.24601 25.9935 8.57781 26.2703 7.88108 26.2703C7.18435 26.2703 6.51616 25.9935 6.02349 25.5008C5.53083 25.0082 5.25405 24.34 5.25405 23.6432C5.25405 22.1852 6.42308 21.0162 7.88108 21.0162ZM19.7027 11.8216L23.3543 5.25405H6.75146L9.85135 11.8216H19.7027Z" fill="#056050"/>
</svg>
