<svg width="19" height="19" viewBox="0 0 19 19" fill="none" xmlns="http://www.w3.org/2000/svg">
<g filter="url(#filter0_d_52_536)">
<rect x="2" width="15.0172" height="16.072" rx="7.50862" fill="white"/>
<g clip-path="url(#clip0_52_536)">
<path fill-rule="evenodd" clip-rule="evenodd" d="M9.59013 9.03549L10.9712 10.4165C11.0445 10.4898 11.1438 10.531 11.2475 10.531C11.3511 10.531 11.4505 10.4898 11.5238 10.4165C11.5971 10.3432 11.6382 10.2439 11.6382 10.1402C11.6382 10.0366 11.5971 9.93719 11.5238 9.86391L10.1422 8.48287L11.5235 7.10183C11.5598 7.06555 11.5886 7.02247 11.6082 6.97507C11.6278 6.92767 11.6379 6.87686 11.6379 6.82556C11.6379 6.77426 11.6278 6.72346 11.6081 6.67606C11.5885 6.62867 11.5597 6.58561 11.5234 6.54934C11.4871 6.51307 11.444 6.48431 11.3966 6.46469C11.3492 6.44506 11.2984 6.43497 11.2471 6.43498C11.1958 6.43499 11.145 6.44511 11.0976 6.46476C11.0502 6.4844 11.0072 6.51319 10.9709 6.54947L9.59013 7.93051L8.2091 6.54947C8.17308 6.51215 8.12999 6.48237 8.08234 6.46187C8.03469 6.44138 7.98344 6.43058 7.93157 6.4301C7.8797 6.42963 7.82826 6.43949 7.78024 6.4591C7.73222 6.47872 7.68859 6.50771 7.6519 6.54437C7.6152 6.58103 7.58618 6.62463 7.56651 6.67263C7.54685 6.72063 7.53694 6.77206 7.53737 6.82393C7.53779 6.8758 7.54854 6.92706 7.56899 6.97473C7.58944 7.0224 7.61918 7.06552 7.65648 7.10157L9.03803 8.48287L7.65674 9.86417C7.61944 9.90022 7.58971 9.94334 7.56926 9.99101C7.54881 10.0387 7.53805 10.0899 7.53763 10.1418C7.5372 10.1937 7.54711 10.2451 7.56677 10.2931C7.58644 10.3411 7.61546 10.3847 7.65216 10.4214C7.68885 10.458 7.73248 10.487 7.7805 10.5066C7.82852 10.5263 7.87996 10.5361 7.93183 10.5356C7.9837 10.5352 8.03495 10.5244 8.0826 10.5039C8.13025 10.4834 8.17334 10.4536 8.20936 10.4163L9.59013 9.03549Z" fill="black"/>
</g>
</g>
<defs>
<filter id="filter0_d_52_536" x="0.694153" y="0" width="17.629" height="18.6837" filterUnits="userSpaceOnUse" color-interpolation-filters="sRGB">
<feFlood flood-opacity="0" result="BackgroundImageFix"/>
<feColorMatrix in="SourceAlpha" type="matrix" values="0 0 0 0 0 0 0 0 0 0 0 0 0 0 0 0 0 0 127 0" result="hardAlpha"/>
<feOffset dy="1.30585"/>
<feGaussianBlur stdDeviation="0.652924"/>
<feComposite in2="hardAlpha" operator="out"/>
<feColorMatrix type="matrix" values="0 0 0 0 0 0 0 0 0 0 0 0 0 0 0 0 0 0 0.25 0"/>
<feBlend mode="normal" in2="BackgroundImageFix" result="effect1_dropShadow_52_536"/>
<feBlend mode="normal" in="SourceGraphic" in2="effect1_dropShadow_52_536" result="shape"/>
</filter>
<clipPath id="clip0_52_536">
<rect width="6.25021" height="6.25021" fill="white" transform="translate(6.46484 5.35718)"/>
</clipPath>
</defs>
</svg>
