<svg width="46" height="26" viewBox="0 0 46 26" fill="none" xmlns="http://www.w3.org/2000/svg">
<path d="M10.5842 25.9904C8.86379 25.9904 7.40143 25.521 6.19714 24.582C4.99286 23.6431 4.39071 22.503 4.39071 21.1617H2.32621C1.74127 21.1617 1.2513 21.0072 0.856294 20.6981C0.461287 20.3891 0.263095 20.0071 0.261719 19.5521V3.45632C0.261719 2.57105 0.66636 1.81348 1.47564 1.1836C2.28492 0.553714 3.25661 0.238237 4.39071 0.237164H29.1647C30.3001 0.237164 31.2725 0.552641 32.0818 1.1836C32.8911 1.81455 33.295 2.57212 33.2937 3.45632V6.67548H37.4226C38.0764 6.67548 38.6958 6.78976 39.2807 7.01832C39.8656 7.24688 40.3474 7.56182 40.7258 7.96314L45.2677 12.6712C45.4054 12.8053 45.5086 12.9528 45.5774 13.1138C45.6462 13.2747 45.6806 13.4491 45.6806 13.6369V19.5521C45.6806 20.0081 45.4824 20.3907 45.0861 20.6997C44.6897 21.0088 44.1997 21.1627 43.6161 21.1617H41.5516C41.5516 22.503 40.9495 23.6431 39.7452 24.582C38.5409 25.521 37.0786 25.9904 35.3582 25.9904C33.6377 25.9904 32.1754 25.521 30.9711 24.582C29.7668 23.6431 29.1647 22.503 29.1647 21.1617H16.7777C16.7777 22.503 16.1755 23.6431 14.9713 24.582C13.767 25.521 12.3046 25.9904 10.5842 25.9904ZM10.5842 22.7713C11.1691 22.7713 11.6598 22.6167 12.0562 22.3077C12.4526 21.9987 12.6501 21.6166 12.6487 21.1617C12.6473 20.7067 12.4491 20.3247 12.0541 20.0157C11.6591 19.7066 11.1691 19.5521 10.5842 19.5521C9.99926 19.5521 9.50928 19.7066 9.11428 20.0157C8.71927 20.3247 8.52108 20.7067 8.5197 21.1617C8.51833 21.6166 8.71652 21.9992 9.11428 22.3093C9.51204 22.6194 10.002 22.7734 10.5842 22.7713ZM35.3582 22.7713C35.9431 22.7713 36.4338 22.6167 36.8301 22.3077C37.2265 21.9987 37.424 21.6166 37.4226 21.1617C37.4213 20.7067 37.2231 20.3247 36.8281 20.0157C36.4331 19.7066 35.9431 19.5521 35.3582 19.5521C34.7732 19.5521 34.2832 19.7066 33.8882 20.0157C33.4932 20.3247 33.295 20.7067 33.2937 21.1617C33.2923 21.6166 33.4905 21.9992 33.8882 22.3093C34.286 22.6194 34.776 22.7734 35.3582 22.7713ZM33.2937 14.7234H42.0678L37.4226 9.89463H33.2937V14.7234Z" fill="#056050"/>
</svg>
