<svg width="21" height="21" viewBox="0 0 21 21" fill="none" xmlns="http://www.w3.org/2000/svg">
<path d="M0 1.32196C0 0.971352 0.100105 0.635107 0.278294 0.387192C0.456483 0.139277 0.698159 0 0.950156 0H19.3198C19.5718 0 19.8135 0.139277 19.9917 0.387192C20.1699 0.635107 20.27 0.971352 20.27 1.32196C20.27 1.67256 20.1699 2.00881 19.9917 2.25672C19.8135 2.50464 19.5718 2.64391 19.3198 2.64391H0.950156C0.698159 2.64391 0.456483 2.50464 0.278294 2.25672C0.100105 2.00881 0 1.67256 0 1.32196ZM0 10.135C0 9.7844 0.100105 9.44815 0.278294 9.20024C0.456483 8.95232 0.698159 8.81304 0.950156 8.81304H19.3198C19.5718 8.81304 19.8135 8.95232 19.9917 9.20024C20.1699 9.44815 20.27 9.7844 20.27 10.135C20.27 10.4856 20.1699 10.8218 19.9917 11.0698C19.8135 11.3177 19.5718 11.457 19.3198 11.457H0.950156C0.698159 11.457 0.456483 11.3177 0.278294 11.0698C0.100105 10.8218 0 10.4856 0 10.135ZM0.950156 17.6261C0.698159 17.6261 0.456483 17.7654 0.278294 18.0133C0.100105 18.2612 0 18.5974 0 18.948C0 19.2986 0.100105 19.6349 0.278294 19.8828C0.456483 20.1307 0.698159 20.27 0.950156 20.27H19.3198C19.5718 20.27 19.8135 20.1307 19.9917 19.8828C20.1699 19.6349 20.27 19.2986 20.27 18.948C20.27 18.5974 20.1699 18.2612 19.9917 18.0133C19.8135 17.7654 19.5718 17.6261 19.3198 17.6261H0.950156Z" fill="#056050"/>
</svg>
