<svg width="34" height="36" viewBox="0 0 34 36" fill="none" xmlns="http://www.w3.org/2000/svg">
<g clip-path="url(#clip0_1_31)">
<path d="M4.99951 15.5559C4.99951 12.9037 6.05308 10.3602 7.92844 8.48484C9.80381 6.60948 12.3473 5.55591 14.9995 5.55591C17.6517 5.55591 20.1952 6.60948 22.0706 8.48484C23.9459 10.3602 24.9995 12.9037 24.9995 15.5559V21.4272L27.4995 25.1772V30.5559H20.4858C20.2014 31.798 19.504 32.9069 18.5075 33.7011C17.5109 34.4953 16.2744 34.9277 15.0001 34.9277C13.7259 34.9277 12.4893 34.4953 11.4928 33.7011C10.4963 32.9069 9.79884 31.798 9.51451 30.5559H2.49951V25.1772L4.99951 21.4272V15.5559ZM12.1345 30.5559C12.3775 31.1137 12.778 31.5885 13.2869 31.9219C13.7959 32.2553 14.3911 32.4329 14.9995 32.4329C15.6079 32.4329 16.2031 32.2553 16.7121 31.9219C17.221 31.5885 17.6215 31.1137 17.8645 30.5559H12.1345ZM14.9995 8.05591C13.0104 8.05591 11.1027 8.84608 9.69621 10.2526C8.28969 11.6591 7.49951 13.5668 7.49951 15.5559V22.1847L4.99951 25.9347V28.0559H24.9995V25.9347L22.4995 22.1847V15.5559C22.4995 13.5668 21.7093 11.6591 20.3028 10.2526C18.8963 8.84608 16.9886 8.05591 14.9995 8.05591Z" fill="black" fill-opacity="0.59"/>
</g>
<path d="M30.2935 6C31.9503 6 33.2935 4.65685 33.2935 3C33.2935 1.34315 31.9503 0 30.2935 0C28.6366 0 27.2935 1.34315 27.2935 3C27.2935 4.65685 28.6366 6 30.2935 6Z" fill="#B30A0A"/>
<defs>
<clipPath id="clip0_1_31">
<rect width="30" height="30" fill="white" transform="translate(0 5.55591)"/>
</clipPath>
</defs>
</svg>
