<svg width="15" height="15" viewBox="0 0 11 11" fill="none" xmlns="http://www.w3.org/2000/svg">
<path d="M8.42578 8.45544C8.691 8.45544 8.94535 8.5608 9.13289 8.74834C9.32042 8.93587 9.42578 9.19023 9.42578 9.45544C9.42578 9.72066 9.32042 9.97501 9.13289 10.1626C8.94535 10.3501 8.691 10.4554 8.42578 10.4554C8.16056 10.4554 7.90621 10.3501 7.71867 10.1626C7.53114 9.97501 7.42578 9.72066 7.42578 9.45544C7.42578 8.90044 7.87078 8.45544 8.42578 8.45544ZM0.425781 0.455444H2.06078L2.53078 1.45544H9.92578C10.0584 1.45544 10.1856 1.50812 10.2793 1.60189C10.3731 1.69566 10.4258 1.82284 10.4258 1.95544C10.4258 2.04044 10.4008 2.12544 10.3658 2.20544L8.57578 5.44044C8.40578 5.74544 8.07578 5.95544 7.70078 5.95544H3.97578L3.52578 6.77044L3.51078 6.83044C3.51078 6.8636 3.52395 6.89539 3.54739 6.91883C3.57083 6.94228 3.60263 6.95544 3.63578 6.95544H9.42578V7.95544H3.42578C3.16056 7.95544 2.90621 7.85009 2.71867 7.66255C2.53114 7.47501 2.42578 7.22066 2.42578 6.95544C2.42578 6.78044 2.47078 6.61544 2.54578 6.47544L3.22578 5.25044L1.42578 1.45544H0.425781V0.455444ZM3.42578 8.45544C3.691 8.45544 3.94535 8.5608 4.13289 8.74834C4.32042 8.93587 4.42578 9.19023 4.42578 9.45544C4.42578 9.72066 4.32042 9.97501 4.13289 10.1626C3.94535 10.3501 3.691 10.4554 3.42578 10.4554C3.16056 10.4554 2.90621 10.3501 2.71867 10.1626C2.53114 9.97501 2.42578 9.72066 2.42578 9.45544C2.42578 8.90044 2.87078 8.45544 3.42578 8.45544ZM7.92578 4.95544L9.31578 2.45544H2.99578L4.17578 4.95544H7.92578Z" fill="white"/>
</svg>
