<svg width="20" height="20" viewBox="0 0 15 13" fill="none" xmlns="http://www.w3.org/2000/svg">
<path d="M14.8774 4.15858C14.8774 8.63993 8.23286 12.2673 7.94989 12.4171C7.87531 12.4572 7.79195 12.4782 7.70726 12.4782C7.62257 12.4782 7.53921 12.4572 7.46463 12.4171C7.18166 12.2673 0.537109 8.63993 0.537109 4.15858C0.538295 3.10625 0.956858 2.09736 1.70097 1.35325C2.44508 0.609141 3.45397 0.190578 4.5063 0.189392C5.8283 0.189392 6.98576 0.757883 7.70726 1.71881C8.42876 0.757883 9.58623 0.189392 10.9082 0.189392C11.9606 0.190578 12.9694 0.609141 13.7136 1.35325C14.4577 2.09736 14.8762 3.10625 14.8774 4.15858Z" fill="#DE4673"/>
</svg>
