<svg width="50" height="39" viewBox="0 0 50 39" fill="none" xmlns="http://www.w3.org/2000/svg">
<path d="M44.5565 0.199402H5.82594C3.13901 0.199402 1.00883 2.35379 1.00883 5.04072L0.984619 34.0887C0.984619 36.7756 3.13901 38.93 5.82594 38.93H44.5565C47.2435 38.93 49.3979 36.7756 49.3979 34.0887V5.04072C49.3979 2.35379 47.2435 0.199402 44.5565 0.199402ZM42.1359 34.0887H8.2466C6.91524 34.0887 5.82594 32.9994 5.82594 31.668V19.5647H44.5565V31.668C44.5565 32.9994 43.4672 34.0887 42.1359 34.0887ZM44.5565 9.88205H5.82594V7.46139C5.82594 6.13002 6.91524 5.04072 8.2466 5.04072H42.1359C43.4672 5.04072 44.5565 6.13002 44.5565 7.46139V9.88205Z" fill="#056050"/>
</svg>
