<svg width="15" height="15" viewBox="0 0 13 13" fill="none" xmlns="http://www.w3.org/2000/svg">
<path d="M11.8808 0.8795C11.7274 0.890662 11.5768 0.926657 11.4349 0.98608H11.433C11.2968 1.04009 10.6492 1.31251 9.66461 1.72546L6.13644 3.21137C3.60479 4.27718 1.11615 5.32674 1.11615 5.32674L1.14578 5.31527C1.14578 5.31527 0.974203 5.37167 0.794975 5.4945C0.684249 5.56496 0.58897 5.65715 0.514901 5.76549C0.42696 5.89454 0.356225 6.09193 0.382512 6.29601C0.425526 6.64108 0.649203 6.84803 0.809791 6.96226C0.972291 7.07792 1.12714 7.13193 1.12714 7.13193H1.13097L3.46475 7.91814C3.56942 8.25413 4.17593 10.2481 4.3217 10.7074C4.40773 10.9817 4.49137 11.1533 4.59604 11.2843C4.6467 11.3512 4.70597 11.4071 4.77718 11.452C4.8142 11.4736 4.85368 11.4906 4.89475 11.5027L4.87086 11.497C4.87803 11.4989 4.88376 11.5046 4.88902 11.5065C4.90814 11.5118 4.92104 11.5137 4.94542 11.5175C5.31486 11.6294 5.61167 11.3999 5.61167 11.3999L5.62839 11.3866L7.0063 10.132L9.31571 11.9037L9.36828 11.9262C9.84957 12.1374 10.3371 12.0198 10.5947 11.8124C10.8542 11.6035 10.955 11.3364 10.955 11.3364L10.9718 11.2934L12.7564 2.15082C12.8071 1.92523 12.82 1.71398 12.7641 1.50895C12.7064 1.30144 12.5732 1.12297 12.3908 1.00854C12.2376 0.9154 12.0599 0.870442 11.8808 0.8795ZM11.8325 1.85928C11.8306 1.88939 11.8364 1.88604 11.823 1.94387V1.94913L10.0551 10.9966C10.0474 11.0095 10.0345 11.0377 9.99916 11.0659C9.96189 11.0955 9.93225 11.1141 9.77692 11.0525L6.95229 8.88693L5.24604 10.4421L5.6045 8.15281L10.2195 3.85134C10.4097 3.6745 10.3461 3.63722 10.3461 3.63722C10.3595 3.42023 10.0589 3.57365 10.0589 3.57365L4.2395 7.17876L4.23758 7.1692L1.44832 6.23005V6.22814L1.44115 6.2267C1.44604 6.22508 1.45083 6.22317 1.45549 6.22097L1.47078 6.21332L1.4856 6.20807C1.4856 6.20807 3.97615 5.15851 6.5078 4.0927C7.7753 3.55884 9.05236 3.02115 10.0345 2.6063C10.617 2.36112 11.2001 2.11737 11.7838 1.87505C11.823 1.85976 11.8043 1.85928 11.8325 1.85928Z" fill="#056050"/>
</svg>
