<svg width="10" height="10" viewBox="0 0 6 6" fill="none" xmlns="http://www.w3.org/2000/svg">
<path d="M2.07554 1.76436L1.96048 1.78114L0.564277 1.98469L0.564116 1.98471C0.495436 1.99467 0.467303 2.08012 0.517548 2.12905L0.51761 2.12911L1.52773 3.11342L1.61108 3.19464L1.59137 3.30934L1.35249 4.69965C1.35248 4.69968 1.35248 4.69971 1.35247 4.69974C1.34074 4.76871 1.41367 4.82103 1.47421 4.78893L1.47491 4.78856L2.72394 4.13203L2.82687 4.07793L2.92981 4.13203L4.17884 4.78857L4.17888 4.78858C4.24098 4.82124 4.31284 4.76732 4.30126 4.69965L4.06238 3.30934L4.04267 3.19464L4.12602 3.11342L5.13614 2.12911L5.1362 2.12904C5.18645 2.08012 5.15831 1.99467 5.08963 1.98471L5.08947 1.98469L3.69327 1.78114L3.5782 1.76436L3.52677 1.66007L2.90293 0.395203C2.9029 0.395142 2.90287 0.395081 2.90284 0.39502C2.87111 0.33136 2.7815 0.333221 2.75102 0.394795L2.07554 1.76436ZM2.07554 1.76436L2.12698 1.66007L2.75098 0.394878L2.07554 1.76436Z" fill="#047711" stroke="#047711" stroke-width="0.44247"/>
</svg>
