<svg width="58" height="58" viewBox="0 0 58 58" fill="none" xmlns="http://www.w3.org/2000/svg">
<path d="M50.7213 29.5603C50.7213 16.4353 40.5369 7.51793 29.2049 7.51793C17.9925 7.51793 7.68856 16.244 7.68856 29.7037C6.25413 30.5165 5.29785 32.0466 5.29785 33.8157V38.5971C5.29785 41.2269 7.44949 43.3786 10.0793 43.3786H12.47V28.7952C12.47 19.5432 19.9529 12.0603 29.2049 12.0603C38.457 12.0603 45.9399 19.5432 45.9399 28.7952V45.7693H26.8142V50.5507H45.9399C48.5697 50.5507 50.7213 48.399 50.7213 45.7693V42.8526C52.1318 42.1115 53.112 40.6531 53.112 38.9318V33.4332C53.112 31.7597 52.1318 30.3014 50.7213 29.5603Z" fill="#056050"/>
<path d="M22.0333 33.8148C23.3536 33.8148 24.424 32.7444 24.424 31.424C24.424 30.1037 23.3536 29.0333 22.0333 29.0333C20.7129 29.0333 19.6426 30.1037 19.6426 31.424C19.6426 32.7444 20.7129 33.8148 22.0333 33.8148Z" fill="#056050"/>
<path d="M36.3775 33.8148C37.6979 33.8148 38.7682 32.7444 38.7682 31.424C38.7682 30.1037 37.6979 29.0333 36.3775 29.0333C35.0572 29.0333 33.9868 30.1037 33.9868 31.424C33.9868 32.7444 35.0572 33.8148 36.3775 33.8148Z" fill="#056050"/>
<path d="M43.5486 26.7144C42.9786 23.3534 41.2378 20.3024 38.6344 18.1016C36.031 15.9007 32.7329 14.6919 29.3239 14.6891C22.0801 14.6891 14.2864 20.6898 14.9079 30.1092C17.856 28.9028 20.4598 26.9857 22.487 24.5287C24.5143 22.0718 25.9022 19.1514 26.5268 16.0279C29.6586 22.3155 36.0896 26.6426 43.5486 26.7144Z" fill="#056050"/>
</svg>
